<svg width="43.784973" height="45.788086" viewBox="0 0 43.785 45.7881" fill="none" xmlns="http://www.w3.org/2000/svg" xmlns:xlink="http://www.w3.org/1999/xlink">
	<desc>
			Created with Pixso.
	</desc>
	<defs>
		<linearGradient x1="36.000000" y1="7.782956" x2="24.783199" y2="18.855278" id="paint_linear_2_15_0" gradientUnits="userSpaceOnUse">
			<stop stop-color="#FFB301"/>
			<stop offset="1.000000" stop-color="#FFC533"/>
		</linearGradient>
		<linearGradient x1="17.999998" y1="11.782959" x2="17.999998" y2="33.782959" id="paint_linear_2_18_0" gradientUnits="userSpaceOnUse">
			<stop stop-color="#9FC7FF"/>
			<stop offset="1.000000" stop-color="#9BC1F5"/>
		</linearGradient>
		<radialGradient gradientTransform="translate(11.0679 -22.9136) rotate(-90) scale(20.9574 6.69705)" cx="0.000000" cy="0.000000" r="1.000000" id="paint_radial_2_19_0" gradientUnits="userSpaceOnUse">
			<stop stop-color="#486DA8" stop-opacity="0.400000"/>
			<stop offset="1.000000" stop-color="#486DA8" stop-opacity="0.000000"/>
		</radialGradient>
	</defs>
	<path id="Vector" d="M36 15.78C36 20.2 32.41 23.78 28 23.78C23.58 23.78 20 20.2 20 15.78C20 11.36 23.58 7.78 28 7.78C32.41 7.78 36 11.36 36 15.78Z" fill="url(#paint_linear_2_15_0)" fill-opacity="1.000000" fill-rule="evenodd"/>
	<path id="Vector" d="M26.96 1.24L27.48 4.19C27.82 6.16 24.87 6.68 24.52 4.71L24 1.76C23.65 -0.21 26.61 -0.73 26.96 1.24ZM37.54 4.76L35.82 7.22C34.67 8.86 32.22 7.14 33.36 5.5L35.08 3.04C36.23 1.4 38.69 3.12 37.54 4.76ZM16.98 6.23L19.44 7.95C21.08 9.1 19.36 11.56 17.72 10.41L15.26 8.69C13.62 7.54 15.34 5.09 16.98 6.23ZM38.28 21.14L40.74 22.86C42.37 24.01 40.65 26.47 39.02 25.32L36.56 23.6C34.92 22.45 36.64 20 38.28 21.14ZM42.54 14.74L39.58 15.26C37.61 15.6 37.09 12.65 39.06 12.3L42.02 11.78C43.99 11.43 44.51 14.39 42.54 14.74Z" fill="#FFB300" fill-opacity="1.000000" fill-rule="nonzero"/>
	<path id="Vector" d="M10.21 38.7L8.11 43.7C7.79 44.47 8.15 45.35 8.91 45.67C9.68 45.99 10.56 45.63 10.88 44.86L12.98 39.87C13.3 39.1 12.94 38.22 12.18 37.9C11.41 37.58 10.53 37.94 10.21 38.7ZM20.21 36.7L18.11 41.7C17.79 42.47 18.15 43.35 18.92 43.67C19.68 43.99 20.56 43.63 20.88 42.86L22.98 37.87C23.3 37.1 22.94 36.22 22.18 35.9C21.41 35.58 20.53 35.94 20.21 36.7Z" fill="#66AFEB" fill-opacity="1.000000" fill-rule="nonzero"/>
	<path id="Vector" d="M8 33.78C3.58 33.78 0 30.2 0 25.78C0 21.36 3.58 17.78 8 17.78C8.83 17.78 9.63 17.91 10.39 18.14C11.51 14.46 14.94 11.78 19 11.78C23.97 11.78 28 15.81 28 20.78C28 21.25 27.96 21.71 27.89 22.16C28.55 21.91 29.25 21.78 30 21.78C33.31 21.78 36 24.46 36 27.78C36 31.09 33.31 33.78 30 33.78L8 33.78Z" fill="url(#paint_linear_2_18_0)" fill-opacity="1.000000" fill-rule="nonzero"/>
	<path id="Vector" d="M10 20.78C10 25.75 14.03 29.78 19 29.78C23.5 29.78 27.23 26.47 27.89 22.16C28.55 21.91 29.25 21.78 30 21.78C33.31 21.78 36 24.46 36 27.78C36 31.09 33.31 33.78 30 33.78L8 33.78C3.58 33.78 0 30.2 0 25.78C0 21.36 3.58 17.78 8 17.78C8.83 17.78 9.63 17.91 10.39 18.14C10.13 18.98 10 19.86 10 20.78Z" fill="url(#paint_radial_2_19_0)" fill-opacity="1.000000" fill-rule="nonzero"/>
</svg>
